<?xml version="1.0"?>
<svg xmlns="http://www.w3.org/2000/svg" xmlns:xlink="http://www.w3.org/1999/xlink" xmlns:svgjs="http://svgjs.com/svgjs" version="1.1" width="512" height="512" x="0" y="0" viewBox="0 0 16 16" style="enable-background:new 0 0 512 512" xml:space="preserve" class=""><g><defs xmlns="http://www.w3.org/2000/svg"><path id="path-1" d="m.902369.195262c.195262.195262.195262.511845 0 .707107s-.511845.195262-.707107 0c-.195262-.195262-.195262-.511845 0-.707107.195262-.195262.511845-.195262.707107 0" fill="#ffffff" data-original="#000000" style="" class=""/></defs><use xmlns="http://www.w3.org/2000/svg" xmlns:xlink="http://www.w3.org/1999/xlink" transform="translate(9.967 12.951)" xlink:href="#path-1"/><use xmlns="http://www.w3.org/2000/svg" xmlns:xlink="http://www.w3.org/1999/xlink" transform="translate(7.967 14.951)" xlink:href="#path-1"/><path xmlns="http://www.w3.org/2000/svg" d="m1.80474.390524c.390524.390524.390524 1.02369 0 1.41421-.390524.390524-1.02369.390524-1.41421 0-.390524-.390524-.390524-1.02369 0-1.41421.390524-.390524 1.02369-.390524 1.41421 0" transform="translate(10.918 13.902)" fill="#ffffff" data-original="#000000" style="" class=""/><path xmlns="http://www.w3.org/2000/svg" d="m4.59253 0c-.553711 0-1.0752.244141-1.43018.669922l-3.16235 3.79462c.233032.107178.457825.233765.669189.384582.595642.425293 1.0329.982178 1.3338 1.5954l3.78192-3.15204c.425781-.35498.669922-.876465.669922-1.43018-.0000002-1.02686-.835449-1.8623-1.8623-1.8623z" transform="translate(9.561)" fill="#ffffff" data-original="#000000" style="" class=""/><path xmlns="http://www.w3.org/2000/svg" d="m9.66553.913574v-.0004882c-1.28027-.913086-3.05664-.811035-4.22217.240723-.728027.657227-2.94287 2.65674-5.01807 3.10791l-.425293.0927734s.0317383 1.396.454834 2.02557c.828674-.0925903 1.49951-.263977 1.72986-.494324-.509277.602356-.896667 1.0379-1.19678 1.36371.246826.329895.550781.643066.892212.945068 1.22424-.520874 2.31616-1.42108 2.67242-1.7774-.718018 1.19672-1.30194 2.09552-1.60895 2.55853.683228-.397522 1.51593-.914185 2.29523-1.49292-.291321.291321-.673462 1.20648-.982544 2.25171.344604.16626 1.31354.514587 1.31354.514587 1.48779-.113281 4.07178-3.61816 4.94189-4.95898.937988-1.44482.566406-3.36768-.846191-4.37646z" transform="translate(-.016 4.75)" fill="#ffffff" data-original="#000000" style="" class=""/></g></svg>
